<svg width="32" height="32" viewBox="0 0 32 32" xmlns="http://www.w3.org/2000/svg">
  <defs>
    <linearGradient id="faviconGradient" x1="0%" y1="0%" x2="100%" y2="100%">
      <stop offset="0%" style="stop-color:#00f5ff;stop-opacity:1" />
      <stop offset="50%" style="stop-color:#0ea5e9;stop-opacity:1" />
      <stop offset="100%" style="stop-color:#3b82f6;stop-opacity:1" />
    </linearGradient>
    <filter id="faviconGlow" x="-50%" y="-50%" width="200%" height="200%">
      <feGaussianBlur stdDeviation="1" result="coloredBlur"/>
      <feMerge> 
        <feMergeNode in="coloredBlur"/>
        <feMergeNode in="SourceGraphic"/>
      </feMerge>
    </filter>
  </defs>
  
  <!-- 背景 -->
  <rect width="32" height="32" fill="#1a1a2e"/>
  
  <!-- 主芯片 -->
  <rect x="8" y="10" width="16" height="12" rx="2" ry="2" 
        fill="url(#faviconGradient)" 
        stroke="#00f5ff" stroke-width="0.5"
        filter="url(#faviconGlow)"/>
  
  <!-- 左侧引脚 -->
  <rect x="6" y="12" width="2" height="1" fill="#00f5ff"/>
  <rect x="6" y="14" width="2" height="1" fill="#0ea5e9"/>
  <rect x="6" y="16" width="2" height="1" fill="#3b82f6"/>
  <rect x="6" y="18" width="2" height="1" fill="#00f5ff"/>
  
  <!-- 右侧引脚 -->
  <rect x="24" y="12" width="2" height="1" fill="#00f5ff"/>
  <rect x="24" y="14" width="2" height="1" fill="#0ea5e9"/>
  <rect x="24" y="16" width="2" height="1" fill="#3b82f6"/>
  <rect x="24" y="18" width="2" height="1" fill="#00f5ff"/>
  
  <!-- 上方引脚 -->
  <rect x="12" y="8" width="1" height="2" fill="#00f5ff"/>
  <rect x="14" y="8" width="1" height="2" fill="#0ea5e9"/>
  <rect x="16" y="8" width="1" height="2" fill="#3b82f6"/>
  <rect x="18" y="8" width="1" height="2" fill="#00f5ff"/>
  
  <!-- 下方引脚 -->
  <rect x="12" y="22" width="1" height="2" fill="#00f5ff"/>
  <rect x="14" y="22" width="1" height="2" fill="#0ea5e9"/>
  <rect x="16" y="22" width="1" height="2" fill="#3b82f6"/>
  <rect x="18" y="22" width="1" height="2" fill="#00f5ff"/>
  
  <!-- 内部电路 -->
  <circle cx="12" cy="14" r="1" fill="#ffffff" opacity="0.9"/>
  <circle cx="16" cy="16" r="1" fill="#ffffff" opacity="0.9"/>
  <circle cx="20" cy="14" r="1" fill="#ffffff" opacity="0.9"/>
  <circle cx="16" cy="18" r="1" fill="#ffffff" opacity="0.9"/>
  
  <!-- 连接线 -->
  <path d="M 12 14 L 16 16 L 20 14 L 16 18 Z" 
        stroke="#ffffff" stroke-width="0.3" fill="none" opacity="0.7"/>
  
  <!-- 中央核心 -->
  <rect x="14" y="14" width="4" height="4" rx="0.5" ry="0.5" 
        fill="#ffffff" opacity="0.3"/>
</svg> 